<svg xmlns="http://www.w3.org/2000/svg" width="555" height="283.963" viewBox="0 0 555 283.963">
  <g id="Application_Display" data-name="Application Display" transform="translate(-2045 -1194.037)">
    <path id="Path_225" data-name="Path 225" d="M6.828-99.086l538.433-.505,3.838,3.281,3.111,3.372,1.009,269.376-3.788,3.791-4.7,3.735L6.987,182.836l-3.714-3.447L.181,176.7,1.449-91.947l2.415-3.23Z" transform="translate(2045.79 1294.037)" fill="#c6c6c6"/>
    <path id="Path_226" data-name="Path 226" d="M0,0H543V3H0Z" transform="translate(2051 1194.037)"/>
    <rect id="Rectangle_2472" data-name="Rectangle 2472" width="3" height="3" transform="translate(2594 1197.037)"/>
    <rect id="Rectangle_2473" data-name="Rectangle 2473" width="3" height="272.29" transform="translate(2597 1199.71)"/>
    <rect id="Rectangle_2475" data-name="Rectangle 2475" width="3" height="271.963" transform="translate(2045 1200.037)"/>
    <rect id="Rectangle_2476" data-name="Rectangle 2476" width="3" height="3" transform="translate(2048 1472)"/>
    <rect id="Rectangle_2477" data-name="Rectangle 2477" width="543" height="3" transform="translate(2051 1475)"/>
    <rect id="Rectangle_2478" data-name="Rectangle 2478" width="3" height="3" transform="translate(2594 1472)"/>
    <rect id="Rectangle_2499" data-name="Rectangle 2499" width="543" height="3" transform="translate(2051 1197.037)" fill="#fff"/>
    <rect id="Rectangle_2500" data-name="Rectangle 2500" width="542.99" height="3" transform="translate(2051 1472)" fill="#fff"/>
    <rect id="Rectangle_2501" data-name="Rectangle 2501" width="271.963" height="3" transform="translate(2051 1200.037) rotate(90)" fill="#fff"/>
    <rect id="Rectangle_2502" data-name="Rectangle 2502" width="271.963" height="3" transform="translate(2597 1200.037) rotate(90)" fill="#fff"/>
    <path id="Path_240" data-name="Path 240" d="M0,0H531V260H0Z" transform="translate(2057 1206)" fill="#5f5f5f"/>
    <rect id="Rectangle_3288" data-name="Rectangle 3288" width="3" height="3" transform="translate(2048 1197.037)"/>
  </g>
</svg>
